<?xml version="1.0" encoding="UTF-8"?><svg id="Livello_1" xmlns="http://www.w3.org/2000/svg" viewBox="0 0 178.86286 175.64866"><defs><style>.cls-1{fill:#336;}.cls-1,.cls-2,.cls-3,.cls-4,.cls-5,.cls-6,.cls-7{stroke-width:0px;}.cls-2{fill:#fc0;}.cls-3{fill:#6c3;}.cls-4{fill:#639;}.cls-5{fill:#339;}.cls-6{fill:#f90;}.cls-7{fill:#c33;}</style></defs><g id="PAYWITHIT-logomark"><path class="cls-3" d="M162.24638,133.29104l-59.64248-40.66357c-3.46117-2.35978-7.81307,1.38534-5.99549,5.1596l18.24133,37.87855c5.88693,12.2243,20.56897,17.36175,32.79327,11.47482l14.07342-6.7774c2.8398-1.36755,3.13425-5.29645.52995-7.07199Z"/><path class="cls-5" d="M91.12023,99.25823c-.31303-4.17736-5.95446-5.24482-7.77204-1.47056l-18.24133,37.87855c-5.88693,12.22435-.74947,26.90639,11.47487,32.79327l14.07337,6.7774c2.8398,1.36755,6.09515-.85189,5.85959-3.99498l-5.39446-71.98368Z"/><path class="cls-4" d="M75.08029,87.41994l-40.98795,9.35525c-13.22778,3.01914-21.50348,16.18989-18.48434,29.41766l3.47587,15.22869c.70139,3.07287,4.46625,4.23419,6.7768,2.09033l52.91571-49.09861c3.07082-2.8493.38796-7.92548-3.69609-6.99332Z"/><path class="cls-1" d="M78.031,74.492l-32.86979-26.21279c-10.60784-8.45948-26.065-6.71788-34.52448,3.89002L.89767,64.38168c-1.96523,2.46424-.52581,6.13184,2.59095,6.60162l71.37926,10.75864c4.14232.62437,6.43828-4.63809,3.16313-7.24993Z"/><path class="cls-7" d="M82.33767,70.78592c2.09453,3.62786,7.64044,2.14186,7.64044-2.04725l-.00005-42.04201c0-13.56795-10.999-24.56695-24.56695-24.56695h-15.6203c-3.15194,0-5.12191,3.41209-3.54594,6.14174l36.0928,62.51447Z"/><path class="cls-6" d="M101.92535,74.4922l32.86974-26.21279c10.60784-8.45948,12.34945-23.91659,3.88997-34.52443l-9.73911-12.21245c-1.96518-2.46429-5.86109-1.87706-7.01262,1.05701l-26.37233,67.1956c-1.53044,3.89951,3.08916,7.30896,6.36436,4.69707Z"/><path class="cls-2" d="M173.55786,58.23869l-68.97849,21.27711c-4.00298,1.23475-3.7883,6.97223.29574,7.90439l40.98795,9.35525c13.22778,3.01914,26.39853-5.25661,29.41766-18.48439l3.47587-15.22864c.70134-3.07292-2.18679-5.75273-5.19873-4.82372Z"/></g></svg>